<?xml version="1.0" encoding="UTF-8" standalone="no"?>
<svg width="90px" height="93px" viewBox="0 0 90 93" version="1.1" xmlns="http://www.w3.org/2000/svg" xmlns:xlink="http://www.w3.org/1999/xlink">
    <!-- Generator: Sketch 39.1 (31720) - http://www.bohemiancoding.com/sketch -->
    <title>purple</title>
    <desc>Created with Sketch.</desc>
    <defs>
        <ellipse id="path-1" cx="45" cy="44.9983725" rx="44.8918051" ry="44.9729837"></ellipse>
        <filter x="-50%" y="-50%" width="200%" height="200%" filterUnits="objectBoundingBox" id="filter-3">
            <feOffset dx="0" dy="2" in="SourceAlpha" result="shadowOffsetOuter1"></feOffset>
            <feGaussianBlur stdDeviation="0.5" in="shadowOffsetOuter1" result="shadowBlurOuter1"></feGaussianBlur>
            <feColorMatrix values="0 0 0 0 0   0 0 0 0 0   0 0 0 0 0  0 0 0 0.2 0" type="matrix" in="shadowBlurOuter1"></feColorMatrix>
        </filter>
    </defs>
    <g id="Atual" stroke="none" stroke-width="1" fill="none" fill-rule="evenodd">
        <g id="icon-logo" transform="translate(0.000000, -2.000000)">
            <g id="purple" transform="translate(0.000000, 2.000000)">
                <g id="Espresso">
                    <g id="Shape-+-Shape-+-Shape-+-Shape-Mask">
                        <mask id="mask-2" fill="white">
                            <use xlink:href="#path-1"></use>
                        </mask>
                        <g id="Mask">
                            <use fill="black" fill-opacity="1" filter="url(#filter-3)" xlink:href="#path-1"></use>
                            <use fill="#61C5BB" fill-rule="evenodd" xlink:href="#path-1"></use>
                        </g>
                        <path d="M89.3982671,51.6780651 L65.5918051,25.1389693 L23.3330686,25.1389693 L33.0056318,44.1890235 L34.0016426,75.0350995 L49.1768773,89.7760579 C69.7987365,87.8694575 86.3787184,71.9926763 89.3982671,51.6780651 L89.3982671,51.6780651 Z" id="Shape" fill="#000000" opacity="0.11" mask="url(#mask-2)"></path>
                        <path d="M55.1139531,75.0349367 L34.0018051,75.0349367 L27.7961913,26.5220072 L61.3195668,26.5220072 L55.1139531,75.0349367 Z M63.1913718,19.2520253 C63.0666065,19.315009 62.9262455,19.351302 62.7771119,19.351302 L55.9091697,19.351302 C55.3992238,19.351302 54.9856137,18.9369439 54.9856137,18.4260759 C54.9856137,17.915208 55.3992238,17.5008499 55.9091697,17.5008499 L60.1528159,17.5008499 C59.5142058,15.8605063 58.5157581,13.8074322 57.5169856,13.8074322 L31.3230866,13.8074322 C30.2244043,13.8074322 29.2459386,15.8605063 28.6394946,17.5008499 L45.1304513,17.5008499 C45.6403971,17.5008499 46.0540072,17.915208 46.0540072,18.4260759 C46.0540072,18.9369439 45.6403971,19.351302 45.1304513,19.351302 L25.7622563,19.351302 C25.7361011,19.351302 25.7105957,19.3495118 25.6849278,19.347396 L23.3330686,25.1389693 L65.5918051,25.1389693 L63.1913718,19.2520253 Z" id="Shape" fill="#FFFFFF" mask="url(#mask-2)"></path>
                        <path d="M58.3624007,60.058481 C57.9426173,60.4790235 57.3267509,60.4336166 57.3267509,60.4336166 L31.8583755,60.4336166 C31.8583755,60.4336166 31.174278,60.4367089 30.7843863,60.0701989 C30.2351264,59.5539602 30.1532491,58.7649548 30.1532491,58.7649548 L27.6922202,38.7830018 C27.6922202,38.7830018 27.6452708,38.0315913 28.0574188,37.5500181 C28.4694043,37.0684448 29.0756859,37.0913924 29.0756859,37.0913924 L59.8992238,37.0913924 C59.8992238,37.0913924 60.6288087,37.1019711 61.0412816,37.6103978 C61.4535921,38.1188246 61.383574,39.0746474 61.383574,39.0746474 L58.9405776,58.8764376 C58.9405776,58.8762749 58.7821841,59.6379385 58.3624007,60.058481 L58.3624007,60.058481 Z" id="Shape" fill="#6566A6" mask="url(#mask-2)"></path>
                        <path d="M39.5584116,53.9407595 C39.8802347,53.7522966 40.2416968,53.5420253 40.6244404,53.304575 C41.0076715,53.0690778 41.4147834,52.8081917 41.8155596,52.5180108 C42.0153791,52.3720253 42.2150361,52.2226221 42.4000722,52.0601989 C42.4478339,52.0204882 42.4918592,51.9789873 42.5360469,51.9374864 L42.6034657,51.8771067 L42.6596751,51.8211212 L42.7165343,51.7657866 L42.7902888,51.688481 L42.8273285,51.6497468 L42.8458484,51.6303797 L42.8551083,51.6206148 L42.8598195,51.6157324 C42.8648556,51.6108499 42.8343141,51.6394937 42.8486101,51.6254973 L42.8991336,51.5638156 C43.0326715,51.3987884 43.1579242,51.208047 43.2722924,50.9920796 C43.3873105,50.7766004 43.4854332,50.5347559 43.5855054,50.2813562 C43.6836282,50.0269801 43.7737906,49.7564919 43.8610289,49.4760759 C43.9520036,49.1888246 44.0433032,48.900434 44.1346029,48.6120434 C44.3176895,48.0199638 44.5327798,47.4073779 44.8203249,46.794792 C44.969296,46.4911031 45.1397112,46.1885533 45.3427798,45.8983725 C45.4462635,45.751085 45.5492599,45.6164919 45.6788989,45.4726221 L45.7802708,45.3629295 L45.8312816,45.3088969 L45.871083,45.2711392 L45.9500361,45.1966004 L45.9893502,45.1594937 C46.0299639,45.1194575 46.0038087,45.14566 46.0143682,45.1355696 L46.0198917,45.1308499 L46.0311011,45.1215732 L46.0533574,45.1030199 C46.1722744,45.0040687 46.2902166,44.906094 46.4070217,44.8089331 C46.5272383,44.7199096 46.6464801,44.6318626 46.7642599,44.5446293 C47.0004693,44.3742315 47.2342419,44.2135986 47.4681769,44.0718445 C47.5843321,44.0000723 47.6990253,43.9294394 47.8119314,43.8596203 C47.9269495,43.7945208 48.040343,43.7305606 48.151787,43.6674141 C48.3741877,43.5417722 48.5930144,43.4286618 48.8043682,43.3235262 C49.1011733,43.1746112 49.3841697,43.045877 49.6499458,42.9316275 C49.6398736,42.9238156 49.6307762,42.9151899 49.620704,42.9073779 C47.0979422,40.953906 42.9415343,42.1066546 40.3372202,45.4820615 C38.1169495,48.3599458 37.7429783,51.9231646 39.2438989,54.1222242 C39.344296,54.0644485 39.4479422,54.004557 39.5584116,53.9407595 Z M49.4494765,44.2917179 C49.2797112,44.4417722 49.1027978,44.5981736 48.9197112,44.7601085 C48.7401986,44.9218807 48.5545126,45.0891863 48.3636282,45.2612116 C48.2679422,45.3461664 48.1742058,45.4345389 48.0811191,45.5248644 C47.9868953,45.6133996 47.8863357,45.6994937 47.7947112,45.7925859 C47.6052888,45.9758409 47.4196029,46.1638156 47.2353791,46.3535805 L47.1107762,46.4906148 L47.0747112,46.530651 L47.0544043,46.5589693 L47.0128159,46.6146293 C46.954657,46.6942134 46.8820397,46.7959313 46.8204693,46.8942315 C46.6935921,47.0957143 46.578574,47.3220976 46.4733032,47.5660579 C46.2525271,48.0503978 46.0801625,48.6056962 45.8852166,49.1806872 C45.7890433,49.468915 45.6938448,49.7651175 45.5877617,50.0644123 C45.4787545,50.3628933 45.3622744,50.6656058 45.2282491,50.9688065 C45.0961733,51.2729837 44.9363177,51.5735805 44.7504693,51.8679928 C44.564296,52.1617541 44.344657,52.4478662 44.0806679,52.6983363 L43.9820578,52.7917541 L43.961426,52.8111212 L43.9562274,52.8153526 L43.9458303,52.8238156 L43.9250361,52.8407414 L43.8834477,52.8745931 L43.8005957,52.9419711 L43.6948375,53.0231826 L43.5894043,53.1030922 L43.4906318,53.1714467 C43.4245126,53.2157143 43.3588809,53.2594937 43.2929242,53.2987161 C43.0294224,53.4603255 42.7725812,53.6027306 42.5167148,53.7210488 C42.0072563,53.9617541 41.5185921,54.1394756 41.0640433,54.2822061 C40.5438628,54.4438156 40.0703069,54.5574141 39.6565343,54.6400904 C39.819639,54.8163472 39.9962274,54.9818626 40.1898736,55.1317541 C42.7126354,57.085226 46.8690433,55.9324774 49.4733574,52.5569078 C51.8211552,49.5138336 52.1051264,45.7038879 50.2901805,43.5515371 C50.0339892,43.7780832 49.7529422,44.0256239 49.4494765,44.2917179 Z" id="Shape" fill="#FFFFFF" mask="url(#mask-2)"></path>
                    </g>
                </g>
            </g>
        </g>
    </g>
</svg>